<svg id="Layer_1" data-name="Layer 1" xmlns="http://www.w3.org/2000/svg" viewBox="0 0 49.58 49.57">
  <title>instagram</title>
  <path d="M43.41,4.83H13a9.59,9.59,0,0,0-9.58,9.58V44.83A9.59,9.59,0,0,0,13,54.41H43.42A9.59,9.59,0,0,0,53,44.83V14.41A9.59,9.59,0,0,0,43.41,4.83Zm2.75,5.71h1.1v8.4l-8.37,0,0-8.4Zm-25,14a8.71,8.71,0,1,1-1.65,5.09A8.72,8.72,0,0,1,21.13,24.53Zm27,20.3a4.75,4.75,0,0,1-4.75,4.75H13a4.75,4.75,0,0,1-4.75-4.75V24.53h7.4a13.56,13.56,0,1,0,25.11,0h7.4Z" transform="translate(-3.42 -4.83)"/>
</svg>
