<svg id="Layer_1" data-name="Layer 1" xmlns="http://www.w3.org/2000/svg" viewBox="0 0 32 24">
  <defs>
    <style>
      .cls-1 {
        fill: #231f20;
      }
    </style>
  </defs>
  <title>picture</title>
  <g>
    <path class="cls-1" d="M24,6a2,2,0,1,1-2,2,2,2,0,0,1,2-2m0-1a3,3,0,1,0,3,3,3,3,0,0,0-3-3Z"/>
    <path class="cls-1" d="M26,0H6A6,6,0,0,0,0,6V18a6,6,0,0,0,6,6H26a6,6,0,0,0,6-6V6A6,6,0,0,0,26,0ZM6,2H26a4,4,0,0,1,4,4V17.91l-3.17-2.85a4.32,4.32,0,0,0-5.66,0l-1.84,1.65-8.5-7.65a4.32,4.32,0,0,0-5.66,0L2,11.91V6A4,4,0,0,1,6,2ZM2,18V13.25L5.84,9.8A3.21,3.21,0,0,1,8,9a3.21,3.21,0,0,1,2.16.8l8.43,7.58L13.45,22H6A4,4,0,0,1,2,18Zm24,4H14.95l6.89-6.2a3.32,3.32,0,0,1,4.32,0l3.67,3.3A4,4,0,0,1,26,22Z"/>
  </g>
</svg>
