<svg id="Layer_1" data-name="Layer 1" xmlns="http://www.w3.org/2000/svg" viewBox="0 0 24.77 32">
  <title>pinterest</title>
  <g id="Flat_copy" data-name="Flat copy">
    <path d="M28.39,10.53c0,7.21-4,12.6-9.92,12.6A5.27,5.27,0,0,1,14,20.84s-1.07,4.24-1.29,5.05a19.65,19.65,0,0,1-3.32,6,.24.24,0,0,1-.44-.1,20.63,20.63,0,0,1,.06-7l2.36-10a7.07,7.07,0,0,1-.59-2.91c0-2.73,1.58-4.76,3.54-4.76a2.46,2.46,0,0,1,2.48,2.76c0,1.68-1.07,4.19-1.62,6.52A2.85,2.85,0,0,0,18.07,20c3.48,0,5.83-4.47,5.83-9.77,0-4-2.71-7-7.65-7a8.7,8.7,0,0,0-9,8.8,5.3,5.3,0,0,0,1.21,3.6.89.89,0,0,1,.26,1c-.09.34-.29,1.15-.38,1.48a.63.63,0,0,1-.92.46c-2.57-1-3.76-3.86-3.76-7C3.61,6.26,8,0,16.75,0,23.77,0,28.39,5.08,28.39,10.53Z" transform="translate(-3.61 0)"/>
  </g>
</svg>
