<svg id="Layer_1" data-name="Layer 1" xmlns="http://www.w3.org/2000/svg" viewBox="0 0 49.05 47.97">
  <title>youtube</title>
  <g>
    <path d="M43.91,28.21H12.78a9,9,0,0,0-9,9v7.2a9,9,0,0,0,9,9H43.91a9,9,0,0,0,9-9v-7.2A9,9,0,0,0,43.91,28.21ZM19.32,33.82H16.43V48.2h-2.8V33.82H10.74V31.37h8.58ZM27.5,48.2H25V46.84A5.31,5.31,0,0,1,23.59,48a3,3,0,0,1-1.44.4,1.54,1.54,0,0,1-1.3-.56,2.68,2.68,0,0,1-.43-1.66V35.78h2.48v9.52a1.06,1.06,0,0,0,.15.64.61.61,0,0,0,.51.2,1.41,1.41,0,0,0,.69-.26,3.35,3.35,0,0,0,.77-.67V35.78H27.5Zm9-2.56a3.09,3.09,0,0,1-.58,2,2.06,2.06,0,0,1-1.69.7,3,3,0,0,1-1.3-.27,3.19,3.19,0,0,1-1.06-.84v1H29.36V31.37h2.51v5.42a3.87,3.87,0,0,1,1.06-.86,2.44,2.44,0,0,1,1.15-.29,2.14,2.14,0,0,1,1.8.79,3.7,3.7,0,0,1,.62,2.32v6.89Zm8.6-3.35H40.36v2.34A2.71,2.71,0,0,0,40.6,46a.93.93,0,0,0,.84.38,1,1,0,0,0,.86-.32,2.68,2.68,0,0,0,.25-1.42v-.56H45.1v.64a4,4,0,0,1-.94,2.88,3.7,3.7,0,0,1-2.78,1,3.42,3.42,0,0,1-2.63-1,4,4,0,0,1-1-2.81V39.12a3.5,3.5,0,0,1,1.06-2.63,3.74,3.74,0,0,1,2.72-1,3.48,3.48,0,0,1,2.62.94,3.73,3.73,0,0,1,.91,2.71Z" transform="translate(-3.82 -5.36)"/>
    <path d="M41.47,37.65a1,1,0,0,0-.85.34,1.81,1.81,0,0,0-.26,1.11v1.26h2.19V39.1A1.82,1.82,0,0,0,42.29,38,1,1,0,0,0,41.47,37.65Z" transform="translate(-3.82 -5.36)"/>
    <path d="M32.91,37.6a1.22,1.22,0,0,0-.53.12,1.78,1.78,0,0,0-.51.38v7.73a2.12,2.12,0,0,0,.59.44,1.46,1.46,0,0,0,.6.13.81.81,0,0,0,.67-.27,1.36,1.36,0,0,0,.21-.85V38.88a1.48,1.48,0,0,0-.26-1A1,1,0,0,0,32.91,37.6Z" transform="translate(-3.82 -5.36)"/>
    <polygon points="13.04 18.54 16.18 18.54 16.18 10.85 19.84 0 16.64 0 14.7 7.41 14.5 7.41 12.46 0 9.29 0 13.04 11.19 13.04 18.54"/>
    <path d="M27.92,24.24a4.26,4.26,0,0,0,3-1A3.56,3.56,0,0,0,32,20.49V13.43a3.29,3.29,0,0,0-1.1-2.56,4.12,4.12,0,0,0-2.84-1,4.59,4.59,0,0,0-3,.94,3.13,3.13,0,0,0-1.13,2.53v7.09A3.62,3.62,0,0,0,25,23.21,4.12,4.12,0,0,0,27.92,24.24Zm-1.16-11a.93.93,0,0,1,.32-.73,1.24,1.24,0,0,1,.83-.27,1.38,1.38,0,0,1,.9.27.9.9,0,0,1,.34.73V20.7a1.12,1.12,0,0,1-.34.86,1.26,1.26,0,0,1-.9.31,1.12,1.12,0,0,1-.85-.31,1.2,1.2,0,0,1-.3-.87V13.25Z" transform="translate(-3.82 -5.36)"/>
    <path d="M36.21,24.1a3.51,3.51,0,0,0,1.62-.44,5.92,5.92,0,0,0,1.61-1.28V23.9h2.79V10.22H39.44V20.6a3.87,3.87,0,0,1-.86.74,1.62,1.62,0,0,1-.78.29.67.67,0,0,1-.57-.22,1.12,1.12,0,0,1-.18-.7V10.22H34.26V21.65a2.88,2.88,0,0,0,.49,1.83A1.76,1.76,0,0,0,36.21,24.1Z" transform="translate(-3.82 -5.36)"/>
  </g>
</svg>
